<?xml version="1.0" encoding="utf-8"?>
<!-- Generator: Adobe Illustrator 16.0.0, SVG Export Plug-In . SVG Version: 6.00 Build 0)  -->
<!DOCTYPE svg PUBLIC "-//W3C//DTD SVG 1.1//EN" "http://www.w3.org/Graphics/SVG/1.1/DTD/svg11.dtd">
<svg version="1.1" id="Layer_1" xmlns="http://www.w3.org/2000/svg" xmlns:xlink="http://www.w3.org/1999/xlink" x="0px" y="0px"
	 width="300px" height="236px" viewBox="0 0 300 236" enable-background="new 0 0 300 236" xml:space="preserve">
<g>
	<path fill="#B1132F" d="M10.09,117.998c0,59.295,58.422,109.074,141.098,109.074c82.678,0,141.097-49.779,141.097-109.074
		c0-59.291-58.419-109.07-141.097-109.07C68.512,8.928,10.09,58.707,10.09,117.998"/>
	<path fill="#FFFFFF" d="M200.831,114.61c-6.015,0-9.866-0.062-14.359-0.35V78.196c4.064-0.277,9.462-0.263,14.757-0.263
		c16.01,0,21.504,6.921,21.504,18.388C222.732,108.286,215.928,114.61,200.831,114.61 M201.982,88.924
		c-1.086,0-1.502,0.076-2.3,0.144v14.426c0.438,0.07,0.553,0.146,2.155,0.146c5.386,0,7.269-2.167,7.269-7.653
		C209.106,90.489,207.306,88.924,201.982,88.924"/>
	<path fill="#FFFFFF" d="M75.495,83.16c2.381-3.564,6.453-5.727,11.329-5.727c7.152,0,10.963,4.189,10.963,11.567v25.328H84.587
		V93.24c0-2.699-1.359-4.644-3.5-4.644c-2.548,0-4.395,1.524-4.395,6.091v19.64H63.476V93.24c0-2.699-1.364-4.644-3.505-4.644
		c-2.541,0-4.4,1.524-4.4,6.091v19.64H42.376V78.306h11.891c0,0.943,0.045,2.976-0.24,4.854h0.307
		c2.249-3.555,6.598-5.727,11.388-5.727C70.144,77.433,73.907,78.957,75.495,83.16"/>
	<path fill="#FFFFFF" d="M158.618,114.328h-13.192V78.306h11.894c0,0.943,0.045,3.264-0.249,4.854h0.318
		c2.365-3.564,6.51-5.728,11.381-5.728c7.153,0,10.967,4.189,10.967,11.568v25.327h-13.213V93.24c0-2.699-1.359-4.644-3.498-4.644
		c-2.544,0-4.407,1.524-4.407,6.091V114.328z"/>
	<path fill="#FFFFFF" d="M125.492,78.306h13.195v36.022h-11.891c0-0.94-0.048-3.259,0.239-4.861h-0.306
		c-2.373,3.567-6.371,5.737-11.247,5.737c-6.335,0-10.954-4.583-10.954-11.567v-25.33h13.202v21.083
		c0,2.701,1.364,4.656,3.508,4.656c2.533,0,4.253-1.537,4.253-6.101V78.306z"/>
	<path fill="#FFFFFF" d="M245.019,77.433c-11.443,0-18.593,6.285-18.593,18.888c0,12.595,7.149,18.882,18.593,18.882
		c11.45,0,18.592-6.287,18.592-18.882C263.61,83.718,256.469,77.433,245.019,77.433 M245.019,104.104
		c-3.744,0-4.95-2.572-4.95-7.783c0-5.228,1.206-7.785,4.95-7.785c3.746,0,4.95,2.557,4.95,7.785
		C249.969,101.533,248.765,104.104,245.019,104.104"/>
	<path fill="#FFFFFF" d="M72.998,169.237c-3.673,0-7.465-0.776-9.675-1.98l2.821-10.284c1.256,0.707,2.77,1.161,3.931,1.161
		c2.502,0,3.953-1.244,3.953-4.441v-21.245h13.202v22.795C87.229,164.369,83.245,169.237,72.998,169.237"/>
	<path fill="#FFFFFF" d="M156.224,168.359h-14.521l-12.527-36.017h14.347l2.907,11.578c0.938,2.899,2.093,8.436,2.821,11.41h0.15
		c0.65-2.898,1.519-8.073,2.464-11.051l2.823-11.937h13.991L156.224,168.359z"/>
	<path fill="#FFFFFF" d="M202.487,154.045h-20.619c0.414,2.988,2.79,5.041,7.934,5.041c3.41,0,7.031-0.65,10.656-2.246l1.163,9.856
		c-4.345,1.744-9.499,2.541-13.917,2.541c-12.699,0-18.992-7.366-18.992-18.889c0-12.862,7.81-18.886,17.971-18.886
		c11.16,0,16.235,7.403,16.235,17.401C202.918,150.677,202.784,152.559,202.487,154.045 M186.397,140.846
		c-2.158,0-4.556,1.766-4.556,5.479h8.991C190.975,142.491,188.721,140.846,186.397,140.846"/>
	<path fill="#FFFFFF" d="M221.555,168.359h-13.189v-36.017h11.896c0,0.931,0.038,3.254-0.251,4.848h0.315
		c2.364-3.57,6.513-5.728,11.381-5.728c7.156,0,10.963,4.187,10.963,11.572v25.324h-13.206v-21.087c0-2.692-1.359-4.651-3.51-4.651
		c-2.534,0-4.398,1.526-4.398,6.101V168.359z"/>
	<path fill="#FFFFFF" d="M110.4,131.463c-11.446,0-18.59,6.285-18.59,18.887c0,12.594,7.144,18.888,18.59,18.888
		c11.45,0,18.584-6.294,18.584-18.888C128.984,137.748,121.85,131.463,110.4,131.463 M110.4,158.134
		c-3.747,0-4.945-2.564-4.945-7.784c0-5.221,1.199-7.785,4.945-7.785c3.742,0,4.947,2.564,4.947,7.785
		C115.347,155.569,114.142,158.134,110.4,158.134"/>
	<path fill="#FFFFFF" d="M253.155,156.031c3.632,0,6.596,2.959,6.596,6.599c0,3.639-2.964,6.607-6.596,6.607
		c-3.648,0-6.61-2.969-6.61-6.607C246.545,158.99,249.507,156.031,253.155,156.031 M253.155,168.065
		c2.993,0,5.424-2.436,5.424-5.436c0-3.001-2.431-5.427-5.424-5.427c-3.018,0-5.438,2.426-5.438,5.427
		C247.717,165.63,250.138,168.065,253.155,168.065 M250.609,158.806h2.917c1.804,0,2.65,0.823,2.65,2.278
		c0,1.313-0.777,1.95-1.806,2.079l1.969,3.191h-1.462l-1.868-3.086h-1.022v3.086h-1.378V158.806z M251.987,162.101h1.022
		c0.849,0,1.789-0.06,1.789-1.066c0-1.016-0.94-1.049-1.789-1.049h-1.022V162.101z"/>
</g>
</svg>
