<?xml version="1.0" encoding="utf-8"?>
<!-- Generator: Adobe Illustrator 16.0.0, SVG Export Plug-In . SVG Version: 6.00 Build 0)  -->
<!DOCTYPE svg PUBLIC "-//W3C//DTD SVG 1.1//EN" "http://www.w3.org/Graphics/SVG/1.1/DTD/svg11.dtd">
<svg version="1.1" id="Layer_1" xmlns="http://www.w3.org/2000/svg" xmlns:xlink="http://www.w3.org/1999/xlink" x="0px" y="0px"
	 width="118px" height="70px" viewBox="0 0 118 70" enable-background="new 0 0 118 70" xml:space="preserve">
<path fill="#FFFFFF" d="M32.79,31.976c0,1.544-0.307,2.902-0.927,4.067c-0.617,1.166-1.468,2.146-2.547,2.934
	c-1.082,0.79-2.337,1.392-3.76,1.804c-1.424,0.412-2.944,0.617-4.556,0.617H3.338V4.84h19.566c1.271,0,2.42,0.275,3.45,0.824
	c1.03,0.549,1.906,1.261,2.626,2.136c0.722,0.876,1.279,1.871,1.673,2.987c0.394,1.116,0.593,2.24,0.593,3.372
	c0,1.786-0.446,3.458-1.339,5.02c-0.893,1.563-2.198,2.721-3.913,3.475c2.093,0.619,3.75,1.725,4.969,3.321
	C32.181,27.572,32.79,29.573,32.79,31.976 M10.444,10.917v9.217h9.474c1.2,0,2.222-0.413,3.064-1.237
	c0.84-0.824,1.261-1.956,1.261-3.398c0-1.407-0.386-2.523-1.158-3.347c-0.772-0.823-1.725-1.235-2.857-1.235H10.444z M25.634,30.636
	c0-0.651-0.112-1.278-0.335-1.88c-0.224-0.599-0.523-1.124-0.901-1.57c-0.378-0.446-0.825-0.798-1.339-1.055
	c-0.515-0.258-1.082-0.387-1.699-0.387H10.444v9.629H21c0.651,0,1.26-0.12,1.827-0.36c0.567-0.241,1.056-0.575,1.468-1.005
	c0.412-0.428,0.738-0.935,0.977-1.518C25.513,31.907,25.634,31.289,25.634,30.636"/>
<path fill="#FFFFFF" d="M38.867,3.811h6.898v28.627c0,2.096,0.945,3.142,2.833,3.142c0.378,0,0.815-0.068,1.313-0.206
	c0.497-0.137,0.97-0.292,1.416-0.464l0.927,5.508c-0.927,0.449-2.009,0.791-3.243,1.031c-1.237,0.239-2.353,0.36-3.348,0.36
	c-2.162,0-3.837-0.575-5.021-1.725c-1.184-1.15-1.775-2.789-1.775-4.918V3.811z"/>
<path fill="#FFFFFF" d="M68.831,41.913c-2.195,0-4.17-0.379-5.921-1.133c-1.749-0.757-3.236-1.777-4.453-3.064
	c-1.219-1.286-2.155-2.77-2.806-4.453c-0.653-1.681-0.978-3.45-0.978-5.304c0-1.888,0.325-3.672,0.978-5.354
	c0.651-1.682,1.587-3.167,2.806-4.454c1.216-1.289,2.704-2.308,4.453-3.064c1.751-0.754,3.726-1.132,5.921-1.132
	c2.198,0,4.162,0.378,5.897,1.132c1.731,0.756,3.209,1.775,4.428,3.064c1.219,1.287,2.153,2.772,2.807,4.454
	c0.651,1.682,0.978,3.466,0.978,5.354c0,1.854-0.326,3.623-0.978,5.304c-0.653,1.683-1.581,3.167-2.78,4.453
	c-1.203,1.287-2.679,2.308-4.43,3.064C73.003,41.534,71.029,41.913,68.831,41.913 M61.778,27.958c0,1.202,0.181,2.292,0.541,3.269
	c0.359,0.979,0.855,1.828,1.493,2.549c0.634,0.721,1.382,1.279,2.24,1.673c0.856,0.397,1.783,0.593,2.778,0.593
	c0.996,0,1.923-0.196,2.781-0.593c0.858-0.394,1.604-0.952,2.239-1.673c0.636-0.721,1.135-1.578,1.494-2.575
	c0.36-0.993,0.541-2.093,0.541-3.293c0-1.169-0.181-2.248-0.541-3.245c-0.359-0.996-0.858-1.854-1.494-2.574
	c-0.636-0.722-1.381-1.279-2.239-1.675c-0.858-0.394-1.785-0.591-2.781-0.591c-0.995,0-1.922,0.205-2.778,0.617
	c-0.858,0.412-1.606,0.979-2.24,1.699c-0.638,0.722-1.134,1.58-1.493,2.576C61.958,25.71,61.778,26.792,61.778,27.958"/>
<path fill="#FFFFFF" d="M99.314,41.552c-1.785,0-3.424-0.359-4.916-1.081c-1.493-0.72-2.773-1.707-3.836-2.96
	c-1.066-1.253-1.888-2.704-2.471-4.351c-0.586-1.649-0.877-3.4-0.877-5.252c0-1.958,0.31-3.776,0.927-5.459
	c0.619-1.681,1.476-3.158,2.575-4.427c1.099-1.271,2.411-2.266,3.939-2.988c1.526-0.72,3.216-1.08,5.07-1.08
	c2.13,0,3.98,0.471,5.561,1.416c1.579,0.944,2.866,2.205,3.863,3.784v-4.737h6.024V40.11c0,1.991-0.37,3.776-1.108,5.354
	c-0.737,1.578-1.776,2.917-3.114,4.018c-1.339,1.098-2.917,1.938-4.737,2.521c-1.819,0.583-3.81,0.876-5.974,0.876
	c-2.985,0-5.482-0.49-7.492-1.468c-2.008-0.978-3.73-2.36-5.173-4.145l3.759-3.656c1.029,1.271,2.324,2.266,3.886,2.985
	c1.563,0.723,3.234,1.082,5.021,1.082c1.064,0,2.086-0.146,3.064-0.437c0.979-0.293,1.836-0.748,2.574-1.365
	c0.737-0.617,1.32-1.407,1.751-2.369c0.428-0.961,0.644-2.094,0.644-3.397v-3.398c-0.893,1.545-2.146,2.737-3.758,3.578
	C102.901,41.132,101.168,41.552,99.314,41.552 M101.683,36.043c0.756,0,1.476-0.121,2.163-0.362c0.686-0.239,1.313-0.564,1.88-0.977
	c0.564-0.412,1.071-0.893,1.519-1.442c0.446-0.549,0.79-1.134,1.029-1.751v-6.436c-0.617-1.578-1.579-2.849-2.884-3.81
	s-2.678-1.442-4.119-1.442c-1.065,0-2.033,0.232-2.908,0.696c-0.876,0.462-1.622,1.08-2.24,1.854
	c-0.618,0.772-1.091,1.654-1.418,2.65c-0.324,0.997-0.487,2.026-0.487,3.09c0,1.1,0.189,2.129,0.567,3.089
	c0.376,0.963,0.9,1.803,1.57,2.523c0.669,0.722,1.457,1.289,2.368,1.699C99.632,35.836,100.62,36.043,101.683,36.043"/>
<path fill="#FFFFFF" d="M6.542,52.898c-0.486,0-0.929-0.083-1.322-0.25c-0.395-0.166-0.732-0.391-1.01-0.679
	c-0.28-0.286-0.495-0.619-0.645-0.998c-0.152-0.379-0.227-0.776-0.227-1.194c0-0.434,0.073-0.842,0.221-1.225
	c0.146-0.383,0.359-0.72,0.639-1.01c0.277-0.29,0.616-0.521,1.016-0.692c0.397-0.17,0.845-0.255,1.34-0.255
	c0.495,0,0.937,0.085,1.329,0.255c0.391,0.171,0.724,0.4,0.997,0.686c0.276,0.286,0.485,0.618,0.627,0.998
	c0.144,0.38,0.215,0.774,0.215,1.185c0,0.101-0.002,0.197-0.006,0.29c-0.002,0.093-0.013,0.17-0.029,0.23h-4.7
	c0.022,0.241,0.081,0.454,0.174,0.639c0.093,0.187,0.213,0.345,0.359,0.477c0.148,0.132,0.314,0.231,0.499,0.303
	c0.186,0.068,0.379,0.104,0.582,0.104c0.308,0,0.6-0.075,0.876-0.226c0.274-0.151,0.462-0.351,0.562-0.598l1.336,0.371
	C9.15,51.772,8.792,52.154,8.3,52.452C7.81,52.751,7.225,52.898,6.542,52.898 M8.121,49.231c-0.039-0.458-0.207-0.823-0.505-1.097
	c-0.296-0.276-0.659-0.414-1.085-0.414c-0.209,0-0.404,0.039-0.586,0.112c-0.18,0.072-0.343,0.176-0.481,0.306
	c-0.14,0.132-0.253,0.292-0.343,0.477c-0.089,0.187-0.142,0.392-0.156,0.616H8.121z"/>
<path fill="#FFFFFF" d="M11.534,44.31h1.555v6.453c0,0.473,0.213,0.708,0.637,0.708c0.085,0,0.184-0.015,0.296-0.047
	c0.114-0.03,0.219-0.064,0.321-0.104l0.209,1.241c-0.209,0.103-0.453,0.179-0.733,0.233c-0.278,0.053-0.529,0.081-0.754,0.081
	c-0.487,0-0.864-0.129-1.132-0.39c-0.265-0.26-0.399-0.629-0.399-1.109V44.31z"/>
<path fill="#FFFFFF" d="M28.911,52.782h-1.555v-3.413c0-0.485-0.086-0.843-0.256-1.065c-0.17-0.227-0.403-0.337-0.697-0.337
	c-0.303,0-0.589,0.117-0.858,0.353c-0.272,0.237-0.465,0.544-0.58,0.922v3.541h-1.556v-3.413c0-0.485-0.085-0.843-0.251-1.065
	c-0.166-0.227-0.396-0.337-0.69-0.337c-0.302,0-0.59,0.115-0.866,0.347c-0.274,0.233-0.468,0.539-0.586,0.918v3.551h-1.555V46.7
	h1.405v1.126c0.225-0.396,0.531-0.698,0.923-0.911c0.391-0.213,0.837-0.319,1.34-0.319c0.511,0,0.905,0.124,1.178,0.371
	c0.276,0.25,0.455,0.554,0.54,0.919c0.248-0.418,0.562-0.738,0.941-0.959c0.379-0.22,0.813-0.331,1.3-0.331
	c0.371,0,0.677,0.07,0.917,0.209c0.239,0.14,0.426,0.321,0.557,0.545c0.132,0.225,0.224,0.48,0.272,0.767
	c0.051,0.286,0.077,0.576,0.077,0.87V52.782z"/>
<path fill="#FFFFFF" d="M33.937,52.899c-0.495,0-0.939-0.085-1.335-0.256c-0.395-0.171-0.73-0.4-1.004-0.69
	c-0.275-0.29-0.486-0.625-0.632-1.004c-0.148-0.379-0.221-0.778-0.221-1.196c0-0.426,0.073-0.828,0.221-1.207
	c0.146-0.379,0.357-0.713,0.632-1.003c0.274-0.29,0.609-0.521,1.004-0.691c0.396-0.171,0.84-0.257,1.335-0.257
	c0.494,0,0.939,0.086,1.33,0.257c0.39,0.17,0.722,0.401,0.998,0.691c0.274,0.29,0.485,0.624,0.633,1.003
	c0.146,0.379,0.221,0.781,0.221,1.207c0,0.418-0.075,0.817-0.221,1.196c-0.148,0.379-0.357,0.714-0.627,1.004
	c-0.272,0.29-0.604,0.52-0.998,0.69C34.877,52.814,34.431,52.899,33.937,52.899 M32.347,49.753c0,0.271,0.041,0.518,0.122,0.738
	c0.081,0.219,0.194,0.411,0.336,0.574c0.144,0.163,0.313,0.288,0.505,0.377c0.195,0.089,0.404,0.134,0.627,0.134
	c0.225,0,0.434-0.045,0.626-0.134c0.195-0.089,0.364-0.214,0.506-0.377c0.143-0.163,0.255-0.357,0.336-0.58
	c0.081-0.226,0.122-0.473,0.122-0.744c0-0.262-0.041-0.507-0.122-0.73c-0.081-0.225-0.193-0.418-0.336-0.58
	c-0.142-0.165-0.311-0.29-0.506-0.378c-0.192-0.089-0.401-0.133-0.626-0.133c-0.223,0-0.432,0.046-0.627,0.138
	c-0.192,0.094-0.361,0.221-0.505,0.384c-0.142,0.162-0.255,0.356-0.336,0.58C32.388,49.246,32.347,49.489,32.347,49.753"/>
<path fill="#FFFFFF" d="M38.637,49.741c0-0.424,0.073-0.828,0.221-1.207c0.146-0.379,0.359-0.711,0.639-0.998
	c0.278-0.285,0.615-0.516,1.01-0.686c0.393-0.17,0.839-0.256,1.334-0.256c0.666,0,1.233,0.146,1.702,0.432
	c0.466,0.284,0.817,0.66,1.05,1.125l-1.52,0.465c-0.132-0.225-0.307-0.396-0.524-0.519c-0.217-0.119-0.456-0.178-0.72-0.178
	c-0.223,0-0.432,0.045-0.627,0.134c-0.192,0.087-0.36,0.212-0.504,0.371c-0.143,0.158-0.256,0.349-0.337,0.574
	c-0.081,0.225-0.122,0.472-0.122,0.742c0,0.271,0.043,0.519,0.128,0.745c0.085,0.222,0.199,0.417,0.343,0.578
	c0.144,0.163,0.312,0.288,0.505,0.379c0.193,0.089,0.397,0.133,0.614,0.133c0.28,0,0.536-0.071,0.773-0.209
	c0.235-0.14,0.399-0.311,0.493-0.511l1.521,0.465c-0.209,0.464-0.554,0.843-1.033,1.137c-0.48,0.294-1.056,0.44-1.73,0.44
	c-0.494,0-0.941-0.085-1.334-0.256c-0.395-0.17-0.732-0.399-1.01-0.689c-0.28-0.29-0.495-0.627-0.645-1.009
	C38.712,50.56,38.637,50.158,38.637,49.741"/>
<path fill="#FFFFFF" d="M52.079,52.782h-1.556v-3.413c0-0.478-0.089-0.833-0.267-1.062c-0.179-0.229-0.43-0.341-0.754-0.341
	c-0.138,0-0.286,0.029-0.441,0.091c-0.156,0.063-0.302,0.149-0.441,0.262c-0.139,0.113-0.266,0.245-0.384,0.401
	c-0.115,0.153-0.2,0.324-0.256,0.511v3.551h-1.555V44.31h1.555v3.517c0.225-0.396,0.53-0.698,0.913-0.911s0.807-0.319,1.27-0.319
	c0.395,0,0.716,0.068,0.965,0.203c0.248,0.136,0.44,0.315,0.58,0.541c0.138,0.223,0.235,0.479,0.29,0.765
	c0.053,0.288,0.081,0.582,0.081,0.882V52.782z"/>
<path fill="#FFFFFF" d="M54.283,44.31h1.556v1.543h-1.556V44.31z M54.283,46.701h1.556v6.082h-1.556V46.701z"/>
<path fill="#FFFFFF" d="M58.082,44.31h1.556v6.453c0,0.473,0.213,0.708,0.637,0.708c0.085,0,0.185-0.015,0.296-0.047
	c0.113-0.03,0.219-0.064,0.32-0.104l0.209,1.241c-0.209,0.103-0.452,0.179-0.732,0.233c-0.277,0.053-0.529,0.081-0.754,0.081
	c-0.487,0-0.864-0.129-1.132-0.39c-0.266-0.26-0.399-0.629-0.399-1.109V44.31z"/>
<path fill="#FFFFFF" d="M65.473,52.898c-0.486,0-0.929-0.083-1.322-0.25c-0.396-0.166-0.731-0.391-1.01-0.679
	c-0.279-0.286-0.495-0.619-0.645-0.998c-0.152-0.379-0.228-0.776-0.228-1.194c0-0.434,0.073-0.842,0.221-1.225
	c0.146-0.383,0.359-0.72,0.64-1.01c0.276-0.29,0.616-0.521,1.016-0.692c0.397-0.17,0.845-0.255,1.341-0.255
	c0.494,0,0.937,0.085,1.328,0.255c0.392,0.171,0.724,0.4,0.998,0.686c0.275,0.286,0.484,0.618,0.626,0.998
	c0.145,0.38,0.215,0.774,0.215,1.185c0,0.101-0.002,0.197-0.006,0.29c-0.002,0.093-0.012,0.17-0.028,0.23h-4.7
	c0.021,0.241,0.081,0.454,0.174,0.639c0.094,0.187,0.213,0.345,0.359,0.477c0.147,0.132,0.314,0.231,0.499,0.303
	c0.187,0.068,0.379,0.104,0.581,0.104c0.309,0,0.601-0.075,0.876-0.226c0.274-0.151,0.463-0.351,0.563-0.598l1.336,0.371
	c-0.225,0.464-0.584,0.846-1.074,1.144C66.74,52.751,66.155,52.898,65.473,52.898 M67.051,49.231
	c-0.039-0.458-0.207-0.823-0.505-1.097c-0.296-0.276-0.659-0.414-1.085-0.414c-0.209,0-0.403,0.039-0.586,0.112
	c-0.181,0.072-0.344,0.176-0.48,0.306c-0.141,0.132-0.254,0.292-0.343,0.477c-0.09,0.187-0.143,0.392-0.156,0.616H67.051z"/>
<path fill="#FFFFFF" d="M74.098,48.048c-0.473,0.008-0.892,0.097-1.266,0.271c-0.371,0.175-0.637,0.438-0.801,0.786v3.678h-1.556
	V46.7h1.428v1.301c0.209-0.417,0.483-0.755,0.819-1.011c0.337-0.255,0.691-0.383,1.063-0.383c0.086,0,0.148,0.002,0.191,0.006
	c0.042,0.004,0.083,0.01,0.121,0.018V48.048z"/>
<path fill="#FFFFFF" d="M78.498,52.899c-0.495,0-0.939-0.085-1.335-0.256s-0.73-0.4-1.004-0.69c-0.275-0.29-0.486-0.625-0.633-1.004
	c-0.147-0.379-0.221-0.778-0.221-1.196c0-0.426,0.073-0.828,0.221-1.207c0.146-0.379,0.357-0.713,0.633-1.003
	c0.273-0.29,0.608-0.521,1.004-0.691c0.396-0.171,0.84-0.257,1.335-0.257c0.494,0,0.938,0.086,1.33,0.257
	c0.389,0.17,0.722,0.401,0.997,0.691c0.274,0.29,0.485,0.624,0.633,1.003c0.146,0.379,0.221,0.781,0.221,1.207
	c0,0.418-0.074,0.817-0.221,1.196c-0.147,0.379-0.356,0.714-0.626,1.004c-0.272,0.29-0.604,0.52-0.998,0.69
	C79.438,52.814,78.992,52.899,78.498,52.899 M76.907,49.753c0,0.271,0.041,0.518,0.122,0.738c0.081,0.219,0.194,0.411,0.337,0.574
	c0.144,0.163,0.312,0.288,0.505,0.377c0.194,0.089,0.403,0.134,0.627,0.134c0.225,0,0.434-0.045,0.626-0.134
	c0.195-0.089,0.363-0.214,0.505-0.377c0.145-0.163,0.256-0.357,0.337-0.58c0.081-0.226,0.122-0.473,0.122-0.744
	c0-0.262-0.041-0.507-0.122-0.73c-0.081-0.225-0.192-0.418-0.337-0.58c-0.142-0.165-0.31-0.29-0.505-0.378
	c-0.192-0.089-0.401-0.133-0.626-0.133c-0.224,0-0.433,0.046-0.627,0.138c-0.193,0.094-0.361,0.221-0.505,0.384
	c-0.143,0.162-0.256,0.356-0.337,0.58C76.948,49.246,76.907,49.489,76.907,49.753"/>
<path fill="#B1132F" d="M44.562,65.965c-1.565,0-2.567-0.017-3.736-0.092v-9.382c1.057-0.072,2.462-0.067,3.839-0.067
	c4.165,0,5.595,1.8,5.595,4.782C50.259,64.319,48.488,65.965,44.562,65.965 M44.86,59.282c-0.282,0-0.391,0.021-0.598,0.037v3.753
	c0.114,0.02,0.144,0.038,0.561,0.038c1.401,0,1.891-0.563,1.891-1.991C46.714,59.689,46.245,59.282,44.86,59.282"/>
<path fill="#B1132F" d="M11.955,57.782c0.619-0.927,1.679-1.489,2.947-1.489c1.861,0,2.852,1.091,2.852,3.01v6.588h-3.434v-5.485
	c0-0.702-0.353-1.209-0.91-1.209c-0.663,0-1.144,0.397-1.144,1.585v5.109H8.828v-5.485c0-0.702-0.355-1.209-0.912-1.209
	c-0.661,0-1.145,0.397-1.145,1.585v5.109H3.338V56.52h3.094c0,0.245,0.011,0.774-0.063,1.263h0.08
	c0.585-0.925,1.716-1.489,2.963-1.489C10.563,56.293,11.542,56.689,11.955,57.782"/>
<path fill="#B1132F" d="M33.579,65.891h-3.432V56.52h3.094c0,0.245,0.012,0.851-0.064,1.264h0.082
	c0.616-0.928,1.694-1.49,2.961-1.49c1.861,0,2.853,1.09,2.853,3.009v6.589h-3.437v-5.484c0-0.702-0.354-1.209-0.911-1.209
	c-0.661,0-1.146,0.396-1.146,1.585V65.891z"/>
<path fill="#B1132F" d="M24.961,56.52h3.433v9.371H25.3c0-0.244-0.012-0.848,0.062-1.265h-0.079
	c-0.618,0.928-1.658,1.493-2.926,1.493c-1.648,0-2.85-1.193-2.85-3.01v-6.59h3.435v5.485c0,0.702,0.354,1.211,0.912,1.211
	c0.659,0,1.107-0.399,1.107-1.587V56.52z"/>
<path fill="#B1132F" d="M56.056,56.294c-2.977,0-4.836,1.634-4.836,4.913c0,3.275,1.859,4.911,4.836,4.911
	c2.979,0,4.837-1.636,4.837-4.911C60.893,57.928,59.035,56.294,56.056,56.294 M56.056,63.231c-0.974,0-1.287-0.669-1.287-2.024
	c0-1.36,0.313-2.025,1.287-2.025c0.976,0,1.288,0.665,1.288,2.025C57.344,62.563,57.032,63.231,56.056,63.231"/>
<path fill="#B1132F" d="M66.866,66.127c-0.955,0-1.942-0.202-2.517-0.515l0.733-2.675c0.327,0.183,0.721,0.301,1.022,0.301
	c0.651,0,1.028-0.323,1.028-1.155v-5.526h3.435v5.93C70.568,64.86,69.532,66.127,66.866,66.127"/>
<path fill="#B1132F" d="M88.517,65.898H84.74l-3.259-9.369h3.732l0.756,3.013c0.244,0.753,0.545,2.193,0.734,2.967h0.039
	c0.169-0.754,0.396-2.1,0.641-2.875l0.734-3.104h3.641L88.517,65.898z"/>
<path fill="#B1132F" d="M100.553,62.176h-5.364c0.107,0.776,0.726,1.311,2.063,1.311c0.887,0,1.83-0.169,2.772-0.584l0.303,2.564
	c-1.131,0.453-2.471,0.66-3.621,0.66c-3.304,0-4.941-1.916-4.941-4.913c0-3.347,2.032-4.913,4.676-4.913
	c2.903,0,4.224,1.925,4.224,4.526C100.665,61.3,100.63,61.788,100.553,62.176 M96.367,58.741c-0.563,0-1.186,0.459-1.186,1.425h2.34
	C97.557,59.169,96.97,58.741,96.367,58.741"/>
<path fill="#B1132F" d="M105.513,65.898h-3.431v-9.369h3.094c0,0.242,0.011,0.847-0.064,1.262h0.082
	c0.614-0.93,1.694-1.491,2.961-1.491c1.861,0,2.852,1.089,2.852,3.011v6.588h-3.436v-5.484c0-0.701-0.354-1.211-0.913-1.211
	c-0.659,0-1.145,0.396-1.145,1.588V65.898z"/>
<path fill="#B1132F" d="M76.596,56.301c-2.979,0-4.836,1.634-4.836,4.913c0,3.275,1.857,4.913,4.836,4.913s4.835-1.638,4.835-4.913
	C81.431,57.935,79.575,56.301,76.596,56.301 M76.596,63.238c-0.975,0-1.287-0.667-1.287-2.024c0-1.358,0.313-2.026,1.287-2.026
	c0.974,0,1.287,0.668,1.287,2.026C77.883,62.571,77.57,63.238,76.596,63.238"/>
<path fill="#B1132F" d="M113.735,62.691c0.944,0,1.716,0.77,1.716,1.718c0,0.945-0.771,1.718-1.716,1.718
	c-0.95,0-1.721-0.772-1.721-1.718C112.014,63.461,112.785,62.691,113.735,62.691 M113.735,65.822c0.778,0,1.41-0.634,1.41-1.413
	c0-0.781-0.632-1.412-1.41-1.412c-0.785,0-1.415,0.631-1.415,1.412C112.32,65.188,112.95,65.822,113.735,65.822 M113.072,63.414
	h0.759c0.47,0,0.689,0.214,0.689,0.592c0,0.342-0.202,0.508-0.47,0.541l0.513,0.83h-0.381l-0.485-0.803h-0.267v0.803h-0.358V63.414z
	 M113.43,64.271h0.267c0.221,0,0.464-0.016,0.464-0.276c0-0.265-0.243-0.273-0.464-0.273h-0.267V64.271z"/>
</svg>
