<?xml version="1.0" encoding="utf-8"?>
<!-- Generator: Adobe Illustrator 16.0.0, SVG Export Plug-In . SVG Version: 6.00 Build 0)  -->
<!DOCTYPE svg PUBLIC "-//W3C//DTD SVG 1.1//EN" "http://www.w3.org/Graphics/SVG/1.1/DTD/svg11.dtd">
<svg version="1.1" id="Layer_1" xmlns="http://www.w3.org/2000/svg" xmlns:xlink="http://www.w3.org/1999/xlink" x="0px" y="0px"
	 width="160px" height="15px" viewBox="0 0 160 15" enable-background="new 0 0 160 15" xml:space="preserve">
<g>
	<g>
		<g>
			<path fill="#FFFFFF" d="M76.435,12.865c-1.766,0-2.896-0.019-4.215-0.103V2.176c1.193-0.082,2.778-0.077,4.332-0.077
				c4.701,0,6.312,2.031,6.312,5.397C82.863,11.008,80.866,12.865,76.435,12.865 M76.772,5.325c-0.319,0-0.441,0.022-0.675,0.042
				v4.235c0.129,0.021,0.162,0.043,0.633,0.043c1.581,0,2.134-0.637,2.134-2.247C78.864,5.785,78.335,5.325,76.772,5.325"/>
			<path fill="#FFFFFF" d="M39.644,3.633c0.699-1.047,1.894-1.682,3.325-1.682c2.099,0,3.218,1.229,3.218,3.396v7.435h-3.875V6.592
				c0-0.793-0.399-1.363-1.027-1.363c-0.748,0-1.29,0.447-1.29,1.788v5.765h-3.879V6.592c0-0.793-0.4-1.363-1.029-1.363
				c-0.746,0-1.291,0.447-1.291,1.788v5.765h-3.874V2.208h3.491c0,0.276,0.013,0.873-0.07,1.425h0.09
				c0.66-1.044,1.937-1.682,3.343-1.682C38.073,1.952,39.178,2.399,39.644,3.633"/>
			<path fill="#FFFFFF" d="M64.043,12.782h-3.872V2.208h3.491c0,0.276,0.013,0.958-0.073,1.425h0.093
				c0.695-1.047,1.911-1.682,3.341-1.682c2.1,0,3.219,1.229,3.219,3.396v7.435h-3.878V6.592c0-0.793-0.399-1.363-1.027-1.363
				c-0.747,0-1.294,0.447-1.294,1.788V12.782z"/>
			<path fill="#FFFFFF" d="M54.32,2.208h3.873v10.573h-3.49c0-0.275-0.014-0.956,0.07-1.427h-0.09
				c-0.696,1.047-1.87,1.684-3.301,1.684c-1.86,0-3.215-1.345-3.215-3.396V2.208h3.875v6.188c0,0.793,0.4,1.366,1.029,1.366
				c0.744,0,1.249-0.45,1.249-1.791V2.208z"/>
			<path fill="#FFFFFF" d="M89.406,1.952c-3.359,0-5.458,1.845-5.458,5.545c0,3.696,2.099,5.542,5.458,5.542
				c3.36,0,5.457-1.846,5.457-5.542C94.863,3.796,92.767,1.952,89.406,1.952 M89.406,9.781c-1.1,0-1.453-0.755-1.453-2.284
				c0-1.535,0.354-2.285,1.453-2.285s1.453,0.75,1.453,2.285C90.859,9.026,90.506,9.781,89.406,9.781"/>
		</g>
		<g>
			<path fill="#FFFFFF" d="M101.602,13.048c-1.078,0-2.191-0.228-2.84-0.581l0.828-3.019c0.369,0.207,0.813,0.341,1.154,0.341
				c0.734,0,1.16-0.365,1.16-1.304V2.25h3.875v6.691C105.779,11.62,104.609,13.048,101.602,13.048"/>
			<path fill="#FFFFFF" d="M126.031,12.791h-4.262l-3.678-10.572h4.213l0.853,3.398c0.275,0.852,0.614,2.477,0.828,3.35h0.044
				c0.191-0.851,0.446-2.37,0.724-3.244l0.829-3.504h4.107L126.031,12.791z"/>
			<path fill="#FFFFFF" d="M139.611,8.589h-6.052c0.122,0.877,0.819,1.479,2.329,1.479c1,0,2.064-0.191,3.128-0.659l0.341,2.894
				c-1.275,0.512-2.787,0.745-4.085,0.745c-3.728,0-5.575-2.162-5.575-5.544c0-3.776,2.293-5.544,5.275-5.544
				c3.276,0,4.766,2.173,4.766,5.107C139.738,7.6,139.699,8.153,139.611,8.589 M134.889,4.714c-0.633,0-1.337,0.519-1.337,1.608
				h2.64C136.232,5.198,135.571,4.714,134.889,4.714"/>
			<path fill="#FFFFFF" d="M145.209,12.791h-3.871V2.218h3.492c0,0.273,0.011,0.955-0.074,1.423h0.092
				c0.695-1.048,1.912-1.681,3.342-1.681c2.1,0,3.218,1.229,3.218,3.396v7.434h-3.877V6.601c0-0.79-0.399-1.365-1.03-1.365
				c-0.744,0-1.291,0.448-1.291,1.791V12.791z"/>
			<path fill="#FFFFFF" d="M112.581,1.96c-3.36,0-5.457,1.845-5.457,5.544c0,3.696,2.097,5.544,5.457,5.544s5.455-1.848,5.455-5.544
				C118.036,3.805,115.941,1.96,112.581,1.96 M112.581,9.79c-1.101,0-1.452-0.753-1.452-2.285c0-1.533,0.352-2.285,1.452-2.285
				c1.099,0,1.452,0.752,1.452,2.285C114.033,9.037,113.68,9.79,112.581,9.79"/>
			<path fill="#FFFFFF" d="M154.485,9.172c1.065,0,1.937,0.868,1.937,1.937s-0.871,1.939-1.937,1.939
				c-1.071,0-1.94-0.871-1.94-1.939S153.414,9.172,154.485,9.172 M154.485,12.705c0.878,0,1.592-0.715,1.592-1.596
				s-0.714-1.593-1.592-1.593c-0.886,0-1.597,0.712-1.597,1.593S153.6,12.705,154.485,12.705 M153.738,9.987h0.855
				c0.529,0,0.778,0.241,0.778,0.668c0,0.386-0.228,0.573-0.53,0.61l0.578,0.938h-0.43l-0.548-0.906h-0.3v0.906h-0.404V9.987z
				 M154.143,10.954h0.3c0.249,0,0.525-0.018,0.525-0.313c0-0.298-0.276-0.308-0.525-0.308h-0.3V10.954z"/>
		</g>
	</g>
	<g>
		<path fill="#FFFFFF" d="M3.579,12.791V5.627h2.11c0.452,0,0.845,0.053,1.179,0.156c0.334,0.104,0.612,0.253,0.831,0.447
			c0.219,0.193,0.383,0.427,0.492,0.7c0.108,0.273,0.163,0.578,0.163,0.913c0,0.331-0.059,0.635-0.175,0.912
			S7.891,9.272,7.667,9.471C7.443,9.67,7.165,9.825,6.832,9.935S6.119,10.1,5.69,10.1H4.541v2.69H3.579z M4.541,9.338h1.152
			c0.277,0,0.521-0.036,0.732-0.109s0.389-0.176,0.532-0.308S7.209,8.632,7.282,8.45c0.073-0.182,0.11-0.384,0.11-0.605
			c0-0.455-0.141-0.812-0.422-1.069C6.688,6.518,6.263,6.389,5.693,6.389H4.541V9.338z"/>
		<path fill="#FFFFFF" d="M9.174,9.211c0-0.537,0.085-1.03,0.256-1.479s0.411-0.836,0.72-1.159c0.309-0.324,0.68-0.576,1.113-0.757
			s0.913-0.271,1.44-0.271c0.526,0,1.007,0.091,1.441,0.271s0.806,0.433,1.117,0.757c0.31,0.323,0.55,0.71,0.719,1.159
			c0.169,0.449,0.253,0.942,0.253,1.479s-0.084,1.029-0.253,1.478c-0.169,0.447-0.409,0.833-0.719,1.157
			c-0.311,0.323-0.683,0.574-1.117,0.752c-0.434,0.177-0.915,0.266-1.441,0.266c-0.527,0-1.007-0.089-1.44-0.266
			c-0.433-0.178-0.804-0.429-1.113-0.752c-0.309-0.324-0.549-0.71-0.72-1.157C9.26,10.241,9.174,9.749,9.174,9.211z M10.166,9.211
			c0,0.439,0.06,0.834,0.181,1.182c0.121,0.349,0.292,0.644,0.513,0.884c0.221,0.241,0.488,0.426,0.801,0.555
			c0.313,0.128,0.661,0.192,1.045,0.192c0.387,0,0.737-0.064,1.05-0.192c0.313-0.129,0.58-0.313,0.801-0.555
			c0.221-0.24,0.392-0.535,0.51-0.884c0.119-0.348,0.178-0.742,0.178-1.182s-0.06-0.834-0.178-1.184
			c-0.119-0.351-0.289-0.646-0.51-0.889c-0.221-0.243-0.488-0.429-0.801-0.56c-0.313-0.13-0.663-0.195-1.05-0.195
			c-0.384,0-0.732,0.065-1.045,0.195c-0.313,0.131-0.58,0.316-0.801,0.56c-0.221,0.242-0.392,0.538-0.513,0.889
			C10.226,8.377,10.166,8.772,10.166,9.211z"/>
		<path fill="#FFFFFF" d="M17.666,12.791V5.627h2.028c0.454,0,0.847,0.046,1.178,0.137c0.331,0.092,0.604,0.224,0.82,0.396
			c0.215,0.173,0.375,0.382,0.48,0.628c0.104,0.245,0.157,0.52,0.157,0.822c0,0.253-0.04,0.489-0.121,0.708s-0.197,0.416-0.35,0.591
			c-0.153,0.176-0.34,0.324-0.561,0.445c-0.222,0.122-0.47,0.215-0.746,0.28c0.121,0.071,0.227,0.173,0.319,0.303l2.094,2.854
			h-0.859c-0.176,0-0.306-0.068-0.391-0.205l-1.866-2.567c-0.055-0.082-0.116-0.14-0.183-0.174s-0.167-0.052-0.3-0.052h-0.737v2.998
			H17.666z M18.627,9.094h1.016c0.283,0,0.532-0.034,0.747-0.103s0.395-0.165,0.54-0.29c0.145-0.126,0.254-0.274,0.327-0.447
			c0.073-0.172,0.11-0.364,0.11-0.576c0-0.426-0.141-0.748-0.422-0.964c-0.282-0.217-0.701-0.325-1.257-0.325h-1.06V9.094z"/>
	</g>
</g>
</svg>
